<svg xmlns="http://www.w3.org/2000/svg" viewBox="0 0 154.64 154.64"><defs><style>.cls-1{fill:none;}</style></defs><g id="Layer_2" data-name="Layer 2"><g id="Layer_6" data-name="Layer 6"><path d="M38.26,140.25H14.33s14.1-21.76,25.49-21.76c0,0-17.13,16.77-1.55,17.67"/><path d="M119.33,140.25h23.93s-14.1-21.76-25.49-21.76c0,0,17.13,16.77,1.55,17.67"/><path d="M50.37,118.49H74.3s-14.1,18.82-25.49,18.82c0,0,17.13-14.5,1.55-15.28"/><path d="M86.05,118.49H110s-14.1,18.82-25.49,18.82c0,0,17.13-14.5,1.55-15.28"/><path d="M28.65,67c-14.14,0-1.38-12.4-1.38-12.4-9,0-20.15,15.29-20.15,15.29H122.77c17.37,0,0,12.4,0,12.4,11,0,24.74-15.29,24.74-15.29Z"/><path d="M40.32,32.92C23,32.92,45.25,9.5,45.25,9.5c-9,0-32.46,26.31-32.46,26.31H122.45c17.37,0,0,12.4,0,12.4,11,0,24.74-15.29,24.74-15.29Z"/><path d="M57.77,85.81,37.6,109V42.54h19s-9,3.3-9,6.76V78.8C47.53,91.91,57.77,85.81,57.77,85.81Z"/><path d="M80,85.81,59.78,109V42.54h19s-9,3.3-9,6.76V78.8C69.71,91.91,80,85.81,80,85.81Z"/><path d="M102.13,85.81,82,109V42.54h19s-9,3.3-9,6.76V78.8C91.89,91.91,102.13,85.81,102.13,85.81Z"/><path d="M124.31,85.81,104.14,109V42.54h19s-9,3.3-9,6.76V78.8C114.07,91.91,124.31,85.81,124.31,85.81Z"/><path d="M127,95.65s16.18,12.4-1.2,12.4H22.37c-12.16,0,0-12.4,0-12.4-7.74,0-19.5,15.68-19.5,15.68h148.9S138.08,95.65,127,95.65Z"/></g></g></svg>