<svg xmlns="http://www.w3.org/2000/svg" viewBox="0 0 154.64 154.64"><defs><style>.cls-1{fill:none;}</style></defs><g id="Layer_2" data-name="Layer 2"><g id="Layer_6" data-name="Layer 6"><path d="M39.48,46.73c12,6.87,46,12.88,63.05,12.88,20.88,0,31.18,3.31,31.18-8.74,0-20.71-22.22-17.76-31.33-17.76-4.13,0,10.75,2.74,10.75,7.73,0,8.6-7.48,4.94-7.48,7.53,0,6.77-54.7-4.52-65.33-12.68,0-1.67,0-3.19,0-4.46,0-8.56-6.82-17.93,1.61-17.93C41.61,9.55,29.3.18,29.3,10.08c0,6.11,5.79,20.35-1.88,20.35-8.83,0-22.16,1.88-22.16,8.37C5.26,53.44,16.85,60,25.2,60,34.46,59.78,38.09,53.63,39.48,46.73Zm.68-5.21c.08-1.07.12-2.13.14-3.16,5.93,2.65,24.6,9.88,24.6,9.88Z"/><path d="M38,82.06C38,79,36.11,80,33.36,80c-3.16,0-7.93.68-7.93,3a7.29,7.29,0,0,0,7.14,7.6C38.57,90.41,38,85.13,38,82.06Z"/><path d="M83.33,90.46c3.16.15,8-.3,8.07-2.62a7.3,7.3,0,0,0-6.77-7.93c-6-.12-5.65,5.18-5.79,8.25S80.59,90.33,83.33,90.46Z"/><path d="M140.85,90.57c6-.16,5.39-5.44,5.39-8.51S144.39,80,141.64,80c-3.16,0-7.93.68-7.93,3A7.29,7.29,0,0,0,140.85,90.57Z"/><path d="M135.61,121.13c-8,0-26.37-9.56-26.37.79,0,.3,0,.59,0,.89-9.43-2.16-26-11.71-26.27-1.1h0c-12.56,0-30.39-10.65-31.14.29-9.5-1.51-26.85-8.6-26.62-1.82.19,5.71,5.06,13.11,5.06,8.5,0-13.51,11.23,14,19.8,14.5s13-8.77,13-14.47a6.54,6.54,0,0,1,.19-1.59c6.08,3.94,6.19,16.06,21.23,16.06,7.91,0,8.89-6.61,9-12.11,6.31,4,7.32,11.73,13.75,12.14,7.51.46,12.41-6,13.51-11.45,5.45,4.15,6.68,11.07,12.76,11.45,8.56.53,13.74-8,13.74-13.66C147.2,118.8,135.61,121.13,135.61,121.13Z"/><path d="M66.16,106.27c0,1.67,3.37,5.62,10.4,5.62,3.86,0,5.38-5.45,5.38-9.37,0-7.11-8.17-10.9-8.17-21.34,0-4.1.31-6.1,3.79-6.1,0-3.4-3.66-8.36-9.15-8.36-2,0-7.31,1-7.31,6.12,0,4.65,11.71,22.72,7,23.18-3.37,0-10.32-4-13.73-3.89-2-3.15-4.1-6.71-4.1-11.93,0-4.1.32-6.1,3.8-6.1,0-3.4-2.34-8.36-9.15-8.36-2,0-7.31,1-7.31,6.12,0,4.65,11.71,22.71,7,23.18-4.57,0-15.73-7.31-15.73-1.94,2.5,0,13.77,8.25,13.77,12.18,0,3,4.35,5.63,10.39,5.63,3.86,0,5.38-5.45,5.38-9.37A10.87,10.87,0,0,0,57,96.32C61.09,99.05,66.16,103.62,66.16,106.27Z"/><path d="M120.42,108.23c0,1.67,4.36,5.62,10.4,5.62,3.86,0,6.19-5.44,6.19-9.37,0-7.11-9-10.9-9-21.34,0-4.09.32-6.1,3.8-6.1,0-3.4-6.89-8.35-9.15-8.35-2,0-7.31,1-7.31,6.11,0,4.66,11.71,22.72,7,23.18-4.23,0-14.09-6.24-15.53-2.91-2.24-3.39-4.74-7.13-4.74-12.91,0-4.1.31-6.1,3.79-6.1,0-3.4-4.7-8.36-9.15-8.36-2,0-7.31,1-7.31,6.12,0,4.65,11.71,22.72,7,23.18-4.56,0-15.72-7.3-15.72-1.93,2.5,0,13.76,8.24,13.76,12.18,0,1.67,1,5.62,10.4,5.62,3.86,0,5.38-5.44,5.38-9.37,0-2.7-1.18-4.92-2.64-7.2C111.28,97.65,120.42,104.68,120.42,108.23Z"/><path d="M61,89.19c1.84,0,3.34-1.91,3.34-4.28s-1.5-4.28-3.34-4.28-8.38-2.07-8.38,4.28C52.6,93,59.13,89.19,61,89.19Z"/><path d="M113.68,89.19c1.74,0,3.14-1.91,3.14-4.28s-1.4-4.28-3.14-4.28-7.88-2.07-7.88,4.28C105.8,93,111.94,89.19,113.68,89.19Z"/></g></g></svg>