    <svg viewBox="0 0 49.22 52.97" height="30" width="30" fill="#fff">
      <path d="M29.42,21.41c3-2.67.88-1.73,4.25-9a3.89,3.89,0,0,1,.71,3.42C36.14,16,44.44,3.53,46.13,1.4c.12,5,2.43,16.57-2.48,17.76-2.34,12.3-3.58,14.46-6.76,15.78,2.27,0,.26,2.7,4.24,2.21,1,4.27,4.33,11.1,7.42,14.14-1.23,1.55-8.74-2.23-10.17-6.47-.41,1.51-3.2,3.17-4,3.81-.81-2-3.79-6.56-6.51-7.57l-.72-1.44c-1.76-2.38-.79-1.52-2.49-3-1.45,2.48-7.22,6.79-7.16,9.25-.48,0-.79-.65-.83-2.45-3.61,6-3.92,5.15-5.09,4.7-.56,3.11-4.08,4.15-5.86,4.35,0,0-2.66-.37-3.32-1.14,1-.42,3.47-5.44,2.52-10.2,3.38-5.56,5.1-4,7.11-4.36-5.71-2.15-7.68-16.43-8.89-21C2.11,15.83.53,13.09.5,11.88,2.09,10.37,3.14,3.51,5,1.13a24.48,24.48,0,0,0,4.16,9c1.62,1.21,2,1.78,4.71,3.93,0,0-.2-2.71.14-2.05a35.83,35.83,0,0,0,7.26,9.59s3.41-.88,3.37-2.6Z" />
    </svg>