<svg xmlns="http://www.w3.org/2000/svg" viewBox="0 0 152.39 152.39"><defs><style>.cls-1{fill:none;}</style></defs><g id="Layer_2" data-name="Layer 2"><g id="Layer_1-2" data-name="Layer 1"><path d="M42.42,30.44c0,6.43.5,4.2.5,9.64s-9.4,10.39-9.4,16.82,4.13,8.9,6.93,8.9c3.95,0,7.91-12.36,12.36-12.36s35.61-4.95,43-4.95,19.78,5.94,19.78,3C115.62,44,87.43,44,78.53,44s-26,4-24.73,1.49c2.72-5.2,3.46-23.25,0-23.25S42.42,23.52,42.42,30.44Z"/><path d="M33.52,86.82C31.05,96,64.43,75,126,72.48c0,0,3.71-1,3.71-2.47S51.57,80.64,49.84,80.64s-2.21-.26-3.94-.26S34.88,81.81,33.52,86.82Z"/><path d="M47.12,75.2c0-1.73.57-2.3,2.6-4.33,1.83-1.83,2.6-4.7,4.7-4.7s7.75,10.16,7.75,12.73S60.23,93.25,58,93.25c-4.94,0-4.94-3.39-4.94-5.93S47.12,77.67,47.12,75.2Z"/><path d="M67.4,66.17c0-1.85,4.2-6.8,5.69-6.8s1.48.87,1.48,3.4-5.07,26.9-6.18,28-7.35,1.13-6.22,0,3.48-1.27,3.48-3.48S67.4,69.58,67.4,66.17Z"/><path d="M76.8,75.5c0-2.52,7.42-10.19,7.42-8.21S83,85.83,80.61,85.83C77.89,85.83,76.8,79.26,76.8,75.5Z"/><path d="M94.11,61.1c0-3.7,8.65-9.64,8.65-7.91s-5.68,23.62-5.68,26.52a18.51,18.51,0,0,0,1.36,6.12s-10,1-10,0S94.11,79.16,94.11,61.1Z"/><path d="M8.05,101.91c0-1.48,3.46-1,11.62-1,4.95,0,44.55-18.31,109.06-18.31,0,0,14.84.75,14.84,7.92s-2.47,7.22-3.17,7.92c-3.65,3.64-4.25,4.7-6.23,4.7s-5.93-14-11.62-14c-78.89,0-94.47,14-100.41,14C22.14,103.15,8.05,105.62,8.05,101.91Z"/><path d="M36.49,119.82c0-4.31,12.75-17.66,15.83-17.66,2,0-5.69,9.89-3,9.89s17.8-11,17.8-8.1-18.79,18-24.48,18C36.49,121.94,36.49,119.82,36.49,119.82Z"/><path d="M71.85,104c0,1.67-1.61,5,0,6.61s-.49,9.26,1.61,9.26,10.86-3.88,10.86-9.37c0,0-2-3.24-3.81-3.24s.24-8.76-3-8.76S71.85,104,71.85,104Z"/><path d="M95.59,102c0,3.89,6.31,6.11,12.61,6.11,0,0,4.14-1.1,4.14-4.14s-5.54-8.57-7.63-10.67S95.59,98.1,95.59,102Z"/><path d="M119.58,98.45c-2.47,0,3,4.08,3,5.5s-3,4.14-3,6.12,5.9,9.75,7.77,9.75,11.77-5,11.77-7.86-5.2-6.09-6.68-6.09S122.8,98.45,119.58,98.45Z"/></g></g></svg>