<svg xmlns="http://www.w3.org/2000/svg" viewBox="0 0 154.64 154.64"><defs><style>.cls-1{fill:none;}</style></defs><g id="Layer_2" data-name="Layer 2"><g id="Layer_6" data-name="Layer 6"><path d="M34.55,77a35.45,35.45,0,0,0,11.61-1.21v0c0,3.64-2.89,7.48-7.36,7.09C36.07,82.62,35,78.71,35,78.71c-3.09-.27-11.3,13.91,2.9,15.15,10.2.89,14.2-9.19,14.2-15.76A40.14,40.14,0,0,0,51.86,74q2.22-.76,4.45-1.66c1.91,7.24,4.7,13.78,9.6,14.21,12.19,1.06,12.74-7.71,12.74-7.71s-4.56-.24-4.56-6.72a27.29,27.29,0,0,1,1.55-8.53c7.21-3.32,13.51-5.85,17.8-5.47,0,7.26-4.91,12.16-7.65,11.86a5,5,0,0,1-4-2.57c-4-.36-6.44,13.39,8.63,14.71,11.22,1,22.29-13,22.29-23.7,0-7.7-2.89-13.16-12.59-14-4-.35-11.66,4.79-21.06,10a30.89,30.89,0,0,0,1-3.24C95,44.78,107.92,37.05,107.92,31.51c0-6.74-5.13-11.77-14.59-12.59C82,17.92,53.26,30.48,50.69,30.26s-3-1.87-3-1.87S54.22,25,54.22,17.26c0-2.73-4.33-7.92-8.49-8.28s-8.18,2.17-8.18,5.22c0,0,4.25,2,4.25,6.54S26.25,33.09,26.25,33.09c0,3.2,2.64,10.17,11.94,11S90.6,22.14,90.6,33.6c0,2.82-4.8,6.54-11.63,10.21a9.88,9.88,0,0,0-7-3.39,10.24,10.24,0,0,0-9.1,6.6,4,4,0,0,1,4.38,2.27c-3,1.23-6.09,2.4-9.11,3.44a.49.49,0,0,1,0-.12c0-4.5-9.93-7.63-13.69-8a6.24,6.24,0,0,0-1.66.05,6.59,6.59,0,0,0-6,6.68,12.34,12.34,0,0,0,1.73,6.17,15.69,15.69,0,0,1-2.38,0c-3.88-.34-4.47-7.31-4.47-7.31C19.52,49.18,17,75.43,34.55,77ZM50.17,65q-.45-1.73-.9-3.3c1.42-.33,2.91-.71,4.46-1.14.25,1.21.51,2.51.78,3.85A37.69,37.69,0,0,1,50.17,65ZM66.29,75.3c-1.11-.1-2.44-2.45-3.69-5.62,2.16-1,4.3-2,6.4-3C69,71.4,68.46,75.49,66.29,75.3Zm2-19.42c.1,1,.24,2.4.36,3.89A74.08,74.08,0,0,1,60.35,63c-.4-1.38-.76-2.75-1.07-4C62.19,58,65.23,57,68.3,55.88Zm-16-1.26c-1.54.46-3,.88-4.47,1.24,0-1.52.35-3.71,2.89-3.49C51.28,52.42,51.79,53.25,52.26,54.62Zm-9,10.26a7.66,7.66,0,0,1-4.12-1.65,23.78,23.78,0,0,0,3-.19C42.47,63.63,42.86,64.24,43.23,64.88Z"/><path d="M93.22,100.93s-13.89,22.23-38,20.12c-9.79-.86-11-5.92-11-5.92s-19,24.67,3.61,26.79c14.1,1.33,41.34-19,44.66-18.56,0,12.13-7.32,10.7-7.32,10.7s1.27,8.25,9.18,8.95c13,1.14,18-11.94,18.43-19.13C112.73,111.56,109.89,103.24,93.22,100.93Z"/><path d="M131.83,76.12C104.51,73.73,68.49,99,36.67,96.24c-22.92-2-25.51-10.75-25.51-10.75s-20.19,24.2,8.7,26.73c37.22,3.25,56.69-23.32,96-19.88,16.7,1.46,10.06,17.3,10.06,17.3s22.87-.47,22.87-16.18C148.8,84.28,141.34,77,131.83,76.12Z"/></g></g></svg>