<svg xmlns="http://www.w3.org/2000/svg" viewBox="0 0 154.64 154.64"><defs><style>.cls-1{fill:none;}</style></defs><g id="Layer_2" data-name="Layer 2"><g id="Layer_6" data-name="Layer 6"><path d="M151.18,86.48c-3.55-2-13-11.14-15.82-15.69-.15.41-4.92,1.58-12.58,3.2-3.87-3.4-7.76-7-9.77-8.6-.78,2.08-70.22,9-75.2,6.94C40.38,75.69,48.08,83,51.94,87c-24.42,4-45.73,7-49.8,6.3,6.79,6.79,14.42,13.13,19.25,19.15,1.56-2.82,29.76-10.74,59.89-17.19-14,11.22-31.74,23.83-40.84,24.06,2,1.55,16.59,17.21,18.34,19,3.47-2.84,46.78-18.44,46.78-18.44,1.4,4-23,31.74-23,31.74S125,125,129.78,125c-3.5-2.22-13.47-12.61-17.31-18.08-.79,1.77-22.73,5.8-37.81,9.28,9.63-9.49,30.12-20.78,44-27.83C133.12,86.23,145.17,85.28,151.18,86.48ZM63.56,85.05c13.11-4.38,35.28-8.9,37.92-7l-.2.18C89.77,80.44,76.55,82.83,63.56,85.05Z"/><path d="M55.37,69.84c14.27-3.53,48.18-4.42,51.89-3.9-1.56-1.84-8.81-7-10.68-10.67-2.8,2.18-27.39,5.93-42.66,7.7,1.59,0,49.37-24.14,65.41-26.27-3.61-1.58-6.78-7-8.19-8.12-.82,1.66-41.91,6.13-44.9,3.14,0,0,.42-9.6,1.62-13.7,0-.42-16-15.82-16-15.82C53.23,4.44,50.13,33,49.2,33.36c3.55,2,10.32,8.73,13.12,13.28.5-1.32,16.27-7.15,33.6-6.92-6,5.73-50.28,20.53-50.28,20.53S52.6,65.87,55.37,69.84Z"/></g></g></svg>