<svg xmlns="http://www.w3.org/2000/svg" viewBox="0 0 152.39 152.39"><defs><style>.cls-1{fill:none;}</style></defs><g id="Layer_2" data-name="Layer 2"><g id="Layer_1-2" data-name="Layer 1"><path d="M13.78,65.13c0-19.82,45-59.76,45-54.54S29.15,54,29.15,61.62c0,5,4.12,2.65,4.12,7.06A7.28,7.28,0,0,1,25.92,76C22.1,76,13.78,73.09,13.78,65.13Z"/><path d="M38.38,49.27c0,4.41,3.16,3.51,9.8,3.51,5.94,0,20.65-8,25.78-8,3.8,0,.72,2.9,9,3.51s12-3.51,14.34-3.51c3.16,0,7.7,8,16.3,8,1.17,0,3.32.53,3.32,2.06,0,2.15,8.69,4,8.69-.08,0-4.78-9.19-10-9.19-17,0-3.32-12.08-11.26-14.76-11.26-3.89,0-.9,3.34-.9,4.78s13.38,10.52,4.81,10.52c-10.65,0-12-11-14.59-11,0,0-4.08,7.65-12.16,7.65,0,0-17.22-7.23-17.22-5.44,0,4-1.58,6-5,6-12.19,0,2-22.81,2.11-28.45.07-3.36-6.27,9.45-6,9C53.4,18.54,38.38,45.21,38.38,49.27Z"/><path d="M15.29,97.53c0-6.21,28.26-20.29,30.65-20.29s2.32,10,2.32,11.69,7.29,1.56,9.32-.48,3.8-10.51,6-10.51,6.47,5.5,4.56,7.41,5.06,4.81,7,4.81c5,0,7-14.65,2.83-14.65,0,0-2.39-1.45.71-1.45,4.78,0,8.77,6,8.77,8.78,0,3.23,23.23,6.49,23.23,4.33,0-3.6-10.39-8.74-10.39-8.74,0-6.69.26-10.54,1.79-10.54s14.09,20.66,27.8,24.46a5.59,5.59,0,0,1,3.85,7.08c-1.53,4.7-4.44,8.11-6.47,8.11-8.06,0-18.55-15.22-18.55-13.55s1.42,10.77-5.12,5.11c-5-4.31-15.58-11.6-15.58-9S83.62,99.68,81,99.68s-15.3-8.84-17-8.84-4.54,6.93-15.77,6.93S30.82,101.36,30.82,104,15.29,107.33,15.29,97.53Z"/><path d="M23.89,131.94c0-6.69,12.7-32,21.74-32,2.63,0-5.63,18.14.45,18.14C48.47,118.06,59.25,99,62.6,99s4.54,1.72,4.54,6.71S60.6,122.6,64.77,122.6c1.67,0,6.25-5,7.5-3.8s-3.82,9.74-9.73,9.74c-9.83,0-8.31-9.26-8.31-11.41s-9.31,11.71-9.31,14.81C44.92,138.68,23.89,139.11,23.89,131.94Z"/><path d="M76.33,117.06c-3.72,0-.29-5.54,1.7-7.55,4.06-4.11,11-12.05,13.09-12.05,3.11,0,3.35,11.58,5.5,11.58s.36-7.16,4.58-7.16,4.16.21,8.94,5,20.47,8.16,25,8.16c7.55,0,5.88,24.37,2.3,24.37s-11.8-2.79-11.8-5.53c0-2.15-15.28-16.49-17.66-16.49s2,17,.09,17-12.52-3.59-12.52-9.5c0-5.24-3.19-16.2-5.2-16.2C82.85,108.64,80.05,117.06,76.33,117.06Z"/><path d="M44.87,72.92c0-6,13-23.65,20.12-23.65s2.86,16.64,2.86,21.18c0,1.88,4.62-2.56,4.62.3,0,1.92-8.8,6.27-10,5.08-2-2-2-12.83-3.71-12.83s-7.28,5.31-7.28,8.66S44.87,76.75,44.87,72.92Z"/><path d="M73.5,70.94c-2.39,0-1-6.71-1-11.15,0,0,2.91-14,7.81-9.09s3.32,15,8.62,15c1.85,0,10.83-3.92,9.14-3.92-10.38,0-11.34-13.43-9.17-13.43,5.49,0,8,9,23.18,9,3.67,0-.63,21.08-13.08,21.61-3.82.17-6.55-.27-6.55-1.5s6.71-8.55,6.71-11.06c0-3.55-12.45,7.19-12.45,7.19-2.87,0-5-9-6.91-9S77,70.94,73.5,70.94Z"/></g></g></svg>