<svg xmlns="http://www.w3.org/2000/svg" viewBox="0 0 154.64 154.64"><defs><style>.cls-1{fill:none;}</style></defs><g id="Layer_2" data-name="Layer 2"><g id="Layer_6" data-name="Layer 6"><path d="M12.31,65.05c0-20.34,46.17-61.34,46.17-56S28.07,53.6,28.07,61.44c0,5.15,4.23,2.72,4.23,7.25a7.46,7.46,0,0,1-7.54,7.54C20.84,76.23,12.31,73.21,12.31,65.05Z"/><path d="M37.55,48.76c0,4.53,3.25,3.61,10.06,3.61,6.1,0,21.18-8.18,26.46-8.18,3.89,0,.74,3,9.27,3.61s12.26-3.61,14.71-3.61c3.25,0,7.91,8.24,16.74,8.24,1.2,0,3.4.54,3.4,2.12,0,2.2,8.92,4.13,8.92-.09,0-4.9-9.43-10.27-9.43-17.44,0-3.41-12.39-11.56-15.15-11.56-4,0-.92,3.43-.92,4.9s13.73,10.8,4.93,10.8c-10.93,0-12.29-11.28-15-11.28,0,0-4.18,7.85-12.47,7.85,0,0-17.68-7.42-17.68-5.58,0,4.11-1.62,6.12-5.11,6.12-12.51,0,2-23.41,2.17-29.2.07-3.45-6.44,9.69-6.19,9.28C53,17.23,37.55,44.6,37.55,48.76Z"/><path d="M13.85,98.3c0-6.38,29-20.82,31.45-20.82s2.39,10.27,2.39,12,7.48,1.59,9.56-.49,3.9-10.79,6.11-10.79S70,83.83,68,85.79s5.19,4.94,7.15,4.94c5.12,0,7.14-15,2.91-15,0,0-2.46-1.5.73-1.5,4.9,0,9,6.2,9,9,0,3.31,23.83,6.66,23.83,4.44,0-3.69-10.66-9-10.66-9,0-6.87.28-10.83,1.84-10.83S117.3,89.08,131.37,93a5.73,5.73,0,0,1,3.95,7.26c-1.57,4.83-4.56,8.32-6.64,8.32-8.27,0-19-15.61-19-13.9s1.46,11-5.25,5.25c-5.11-4.43-16-11.91-16-9.21s-4.42,9.8-7.11,9.8-15.7-9.07-17.42-9.07-4.65,7.11-16.18,7.11-17.9,3.68-17.9,6.38S13.85,108.35,13.85,98.3Z"/><path d="M22.68,133.61c0-6.87,13-32.86,22.31-32.86,2.7,0-5.78,18.62.47,18.62,2.45,0,13.51-19.6,16.94-19.6s4.66,1.77,4.66,6.89S60.35,124,64.63,124c1.72,0,6.42-5.19,7.7-3.9s-3.92,10-10,10c-10.08,0-8.52-9.5-8.52-11.7s-9.56,12-9.56,15.2C44.26,140.52,22.68,141,22.68,133.61Z"/><path d="M76.5,118.34c-3.82,0-.3-5.69,1.74-7.76,4.17-4.21,11.3-12.36,13.44-12.36,3.19,0,3.43,11.89,5.64,11.89s.37-7.35,4.7-7.35,4.27.21,9.17,5.12,21,8.37,25.67,8.37c7.75,0,6,25,2.36,25s-12.11-2.87-12.11-5.67c0-2.21-15.67-16.92-18.13-16.92s2.07,17.39.1,17.39-12.85-3.67-12.85-9.74c0-5.38-3.28-16.62-5.34-16.62C83.19,109.7,80.32,118.34,76.5,118.34Z"/><path d="M44.21,73c0-6.13,13.29-24.28,20.65-24.28S67.8,65.84,67.8,70.5c0,1.93,4.73-2.63,4.73.31,0,2-9,6.43-10.25,5.21-2.08-2.09-2.08-13.17-3.8-13.17S51,68.31,51,71.74,44.21,77,44.21,73Z"/><path d="M73.59,71c-2.45,0-1.06-6.89-1.06-11.44,0,0,3-14.36,8-9.33S84,65.6,89.4,65.6c1.9,0,11.11-4,9.37-4-10.65,0-11.63-13.78-9.41-13.78,5.64,0,8.26,9.26,23.8,9.26,3.76,0-.65,21.64-13.43,22.18C95.81,79.41,93,79,93,77.7s6.88-8.78,6.88-11.35c0-3.64-12.77,7.38-12.77,7.38C84.18,73.73,82,64.5,80,64.5S77.17,71,73.59,71Z"/></g></g></svg>