<svg xmlns="http://www.w3.org/2000/svg" viewBox="0 0 154.64 154.64"><defs><style>.cls-1{fill:none;}</style></defs><g id="Layer_2" data-name="Layer 2"><g id="Layer_6" data-name="Layer 6"><path d="M28.32,114.41c-2.19,0-5.95.22-5.95.22-2.59-.22-3.94,3.14-3.94,8.16,0,3-2.86,4.5-2.86,6.92,0,.83.83,2.86,2.14,2.86H24.9c2.25,0,3.08-1,3.08-3.17s2.52-10.91,2.52-10.91C30.5,116.6,30.5,114.41,28.32,114.41Z"/><path d="M60,114.39c-3.07,0-3.56.83-3.56,2.47,0,13.08.93,15.45,2.76,15.48,0,0,4.47.83,4.44-1s3.64-1.83,3.59-4.87C67.09,116.46,70.22,114.53,60,114.39Z"/><path d="M100.11,114.34s-3.26.41-4.92.47-3,1.37-3,2.34c-.08,2.47.88,5.79.79,7.63s4.15,2.2,4.07,3.88,0,4.19,2,4.11c6-.23,6.62-2.78,6.7-4.44S104,119.46,104,117.42,102.65,114.25,100.11,114.34Z"/><path d="M143.26,123.47c-4.2,0-1.48-10-5.45-9.65s-8.4,3.77-8.4,5.66,3.7,10.12,3.7,11.34,1.45,1.88,4,1.88c2.14,0,5.37-.54,6.87-.54s2.17-.54,2.17-4.46S143.26,123.47,143.26,123.47Z"/><path d="M138.25,36.57c0-1.88-1.36-2.54-3.05-2.54L32.68,29.93c-3.07-.12-6.75.42-6.75,3.13,0,1.74-2,.76-2,2.59s2.05,4.7,4.28,4.7,5.06-.27,5.06-2.23c0-2.18,97.46.59,100.93.59C138.16,38.71,138.25,38.12,138.25,36.57Z"/><circle cx="32.08" cy="61.53" r="4.22"/><path d="M57.13,61.53a4.22,4.22,0,1,0,4.21-4.21A4.21,4.21,0,0,0,57.13,61.53Z"/><path d="M94.82,61.53a4.22,4.22,0,1,0-4.22,4.22A4.22,4.22,0,0,0,94.82,61.53Z"/><path d="M119.86,57.32a4.22,4.22,0,1,0,4.22,4.21A4.21,4.21,0,0,0,119.86,57.32Z"/><path d="M26,94.82a4.22,4.22,0,1,0-4.22-4.21A4.21,4.21,0,0,0,26,94.82Z"/><path d="M60.1,94.82a4.22,4.22,0,1,0-4.21-4.21A4.21,4.21,0,0,0,60.1,94.82Z"/><path d="M98.46,90.61a4.22,4.22,0,1,0-4.22,4.21A4.22,4.22,0,0,0,98.46,90.61Z"/><path d="M132.59,90.61a4.22,4.22,0,1,0-4.21,4.21A4.22,4.22,0,0,0,132.59,90.61Z"/><path d="M18.44,23.9a4.22,4.22,0,1,0-4.21-4.21A4.21,4.21,0,0,0,18.44,23.9Z"/><path d="M19.68,29.61a4.22,4.22,0,1,0-4.21,4.21A4.21,4.21,0,0,0,19.68,29.61Z"/><path d="M10.51,41.76A4.22,4.22,0,1,0,14.72,46,4.22,4.22,0,0,0,10.51,41.76Z"/></g></g></svg>