<svg xmlns="http://www.w3.org/2000/svg" viewBox="0 0 154.64 154.64"><defs><style>.cls-1{fill:none;}</style></defs><g id="Layer_2" data-name="Layer 2"><g id="Layer_6" data-name="Layer 6"><path d="M27.73,93.91,12.87,109.17H125.3l15.27-15.26H119.35V77.05h12.94l15.27-15.26H119.35V45.2h4.79L139.4,29.94H61.19L74,17.34H49l-36,35.5H38l0-.05v9H21.94L7.08,77.05h31V93.91ZM81.57,77.05V93.91H75.84V77.05ZM75.84,61.79V45.2h5.73V61.79Zm27.48,32.12H97.59V77.05h5.73Zm0-32.12H97.59V45.2h5.73ZM54.08,45.2h5.73V61.79H54.08Zm0,31.85h5.73V93.91H54.08Z"/><polygon points="37.47 112.6 13.78 135.94 37.32 135.94 60.95 112.6 37.47 112.6"/><polygon points="66.55 112.6 42.87 135.94 66.41 135.94 90.03 112.6 66.55 112.6"/><polygon points="119.69 112.6 119.58 112.6 96.21 112.6 96.1 112.6 96.16 112.65 72.52 135.94 96.06 135.94 107.89 124.25 119.73 135.94 143.27 135.94 119.64 112.65 119.69 112.6"/></g></g></svg>