<svg xmlns="http://www.w3.org/2000/svg" viewBox="0 0 154.64 154.64"><defs><style>.cls-1{fill:none;}</style></defs><g id="Layer_2" data-name="Layer 2"><g id="Layer_6" data-name="Layer 6"><path d="M35,35C35,25.93,28.53,19.57,20.47,18c0-.54-.07-1.11-.07-1.72C20.4,3.06,29,.93,29,.93c-8.64,0-17,8.21-17,16.66,0,15,8.62,17.73,15.23,18v0c0,4-2.48,10.14-2.48,13,0,4-2.64,5.34-6.58,5.34,0,1.31,2.68,1,2.68,3.53C20.9,63.13,14,67,16.09,67,23.73,67,35,55.19,35,35Zm-9.69-4.89c0-3.13-3.65-4.64-4.63-10.72,2.94,2.07,6.39,6.4,6.62,15.3A5.38,5.38,0,0,1,25.27,30.15Z"/><path d="M90,99.89c0,4.06,10.17,2.51,10.08,0a14,14,0,0,0-.37-2.74,35.43,35.43,0,0,1,13.32-2.79c4.57-.16,13.63.91,13.63,6.76,0,4.25,4.35,3.62,9.34,3.62,2.18,0,5.69,3.41,5.61,1-.28-7.77-7.56-21.87-25.8-21.87-.83,0-1.64,0-2.43.08a5.55,5.55,0,0,1-2.1-4C111.32,75,126,70,126,70c0-.53-.22-1.09-.82-1.09a72,72,0,0,0-9.76.6c-1.39-.6-2.73-1.92-2.84-5.75A41.19,41.19,0,0,1,114,51.14a6.77,6.77,0,0,0,2-5c0-5.62,6.89,0,6.89,0,27.11,0,9.87-28.42,9.87-28.55s0-.11-.16-.11-.15.25-.15.25c1.45,20.62-9.85,20.09-13.59,20.09s-6.78-3.73-13.56-3.73-13.87,3-13.87,3c-3.12,0-5.61-2.47-11.87-2.47S64.21,36.18,61.1,36.18l0,.17a62.46,62.46,0,0,0-14.8-2.28c-3.77,0-6.22,4.09-7.2,7.8a6.23,6.23,0,0,0-3.23-1S43.37,52.64,43,64c-.23,8.24-10,2.74-10,5.6,0,1.94,4.26,4.23,8.56,4.37C44,75.6,46,77.62,46,79.75s-3.38,3.52-5.68,4.14c-.74,0-1.48,0-2.26,0C36,84,22.3,83.43,22.3,90.4c0,5.07-3.68,3.11-3.68,9,0,3.1,8.38,12,10,12,0,0-1.75-3-1.75-8.66,0-7.51,6.89-9.11,13.65-9.35,7.52-.27,9.78,11.15,13.7,11.15,0,0,8.9,2.5,8.9-3.08,0-5.85,7.68-6.49,13.27-6.69C83.07,94.55,90,96.14,90,99.89Zm11.6-57.79c5.54,0,6.25,5.2,7,8.2a29.92,29.92,0,0,0-5.95,16.58c0,3.46.95,5.72,2.43,7.11a3.91,3.91,0,0,0-.49,1.89c0,2.86-1.35,2.63-1.35,4.05s1.55,3.3,3.68,5.07a19.3,19.3,0,0,0-10.36,6.43c-2.23-2.3-5.63-4.12-10.49-5.08a4.72,4.72,0,0,1,1.12-.25c0-2.34-1.29-1.62-1.29-4.88,0-1.7.44-2.27,1.14-2.34h.23c1.32.07,3.36,1.53,5.13,1.13,1.34-.31,1.78-1.58,1.8-2.86,2,.1,4-.25,4-3.13,0-10.22-9.14-7.14-9.14-14.17a87.83,87.83,0,0,1,.53-10,3.42,3.42,0,0,0,.42-1.7C90.07,45,94.53,42.1,101.64,42.1ZM58.91,91c-2.54-3.28-6.86-5.91-13.71-6.8,3.65-.53,7-1.6,7-3.63a10.37,10.37,0,0,0-4.9-8.13c1.83-1.36,3.08-3.7,3-7.44,0-5.24-3.52-15.19-8.25-20.51.68-1.58,4.52-1.12,6.36-1.12,4.05,0,8.42-.49,8.42,2.75s-4,5.84-.51,5.84a38,38,0,0,0,3.88-.11,23.23,23.23,0,0,1,2.09,9.53c0,7-7.4,6.88-7.33,10.61s3.21,5.54,5,6.82a4.1,4.1,0,0,0,2.68,2c2.73.67,4.38-2.31,4.38,2.57,0,3.26-.57.9-.57,2.54,0,.64.46.91,1,1.24A39.47,39.47,0,0,0,58.91,91Zm16.36-5.38c-.31,0-.65,0-1,.07A3.81,3.81,0,0,1,72.85,83c0-2.79-.32-5.83-5.56-7.22.5-1.1-.54-3.35-.54-4.19,0-4.36,5.14-.49,5.14-4.7,0-8.72-3.58-2.49-3.58-10a10,10,0,0,0-3.53-6.81,4.82,4.82,0,0,0,1.07-4c-.13-1.3.32-1.74.63-3.11a62.47,62.47,0,0,1,7.8-1.16c3.9,0,9.3,2.49,9.3,6.55a3,3,0,0,0,.18,1c-1.14,1.89-.9,4.36-.9,5.91,0,7.48-.94,1.25-.94,10,0,4.2-.49,1.61,2.6,4.7,1.29,1.29,1.25,3.55,1.23,5.46C81,77.61,82,81.66,82,81.66l-1.94,4C78.58,85.57,77,85.56,75.27,85.62Z"/><path d="M43.2,105.42c0,2.21-4.64,10.54-8,10.54-4.16,0-3.41,6.2-3.41,9.31S18,132.21,18,139.31c0,4.93-.19,9.27,9.27,9.27,3,.23,6.28-6.51,6.28-9.48,0-6.44,7.75,3.57,7.75,1.27,0-5.82.08-15.31,2.83-15.31s.18-15.87,0-19.4C44.08,105,43.2,104.46,43.2,105.42Z"/><path d="M135.13,128.77c-3.89-.66-10.18-4.8-10.18-7.11,0-3.85,1.81-3.76,1.81-7.4,0-1.76-8.19-9.14-12.14-9.14-4.57,0,.89,6.59,2.44,9.77,1.83,3.75-4.75,11-4.75,12.5,0,4.61,10.53.59,10.53,5.16,0,3.53-7.74,2.91-7.74,8s2.39,6.44,6.44,6.44,5.91,3.43,5.91,0-3.08-.38-3.08-4.28,10.12,1.73,13.82,3.12C144.51,148.21,142.9,130.09,135.13,128.77Z"/><path d="M71.48,120.52l-.44-7-.39-8.64c-1-1.74-2.65,2.85-3.73,6.23-.33,1-1.85,12.12-7.32,12.12-3.88,0-.11,8.81-1.88,8.81-1.56,0-1.28,1.65-1.28,3.11,0,2,8.3,1.37,8.3,6.16,0,3.42-7.93.88-7.93,6.18,6.18,0,17.42,7.49,17.42-6.33,0-4.23-7.14-6.38-3.63-6.38,2.34,0,2.15-3.39,2.31-4.42s2-2.92,2.18-4C75.74,123.24,74.73,120.52,71.48,120.52Z"/><path d="M100.2,121.86s-2.48-14.58-6-14.48c-1.79.05-4.36-3.45-4.36-.83,0,1.46,1.08,4,1.08,9.84,0,7.48.16,2.19.16,4.3,0,5.32-4.06,3.72-4.06,9.43,0,.83,3,5.39,4.46,5.39,2.19,0,5.2.34,5.2,4.37,0,3.08-6.79,6.88-7.43,8.5,0,2.28,16.8-4.85,16.8-15.44C106,132.94,104,121.86,100.2,121.86Z"/></g></g></svg>