<svg xmlns="http://www.w3.org/2000/svg" viewBox="0 0 154.64 154.64"><defs><style>.cls-1{fill:none;}</style></defs><g id="Layer_2" data-name="Layer 2"><g id="Layer_6" data-name="Layer 6"><path d="M37.31,64.87c4.48,0,9-14,14-14s40.35-5.61,48.76-5.61S122.5,52,122.5,48.62c0-8.41-31.95-8.41-42-8.41s-29.51,4.52-28,1.68c3.08-5.88,3.92-26.34,0-26.34S39.55,17,39.55,24.8c0,7.28.56,4.76.56,10.93S29.46,47.5,29.46,54.78,34.14,64.87,37.31,64.87Z"/><path d="M137.35,83.92c-12.54,0-24.22.61-35,1.63a18.11,18.11,0,0,1-.83-4.92,38.3,38.3,0,0,1,.91-5.33c9.73-1.36,20.36-2.4,31.88-2.86,0,0,4.2-1.13,4.2-2.81,0-.73-16.7,1.45-35.76,4.15,1.88-8.54,5.22-21.79,5.22-23.2,0-2-9.81,4.76-9.81,9a71.36,71.36,0,0,1-1.45,15.09L86.1,76.16c.53-4.4.81-8.62.81-9.61,0-2.24-8.41,6.45-8.41,9.3,0,.44,0,.92,0,1.42l-5.64.82C74.52,70.62,76,62.89,76,61.44c0-2.88,0-3.86-1.68-3.86s-6.45,5.61-6.45,7.71S67.28,73.45,66.74,79l-4.81.71c0-2.91-6.41-14.42-8.79-14.42s-3.24,3.24-5.32,5.32c-2.3,2.31-2.94,3-2.94,4.91,0,1.28,1.41,3.67,2.94,6.16-1.84,0-2.42-.29-4.33-.29S31,83,29.46,88.69c-1.29,4.78,6.09,2.28,21.26-2.07a6.8,6.8,0,0,1,.88,2.63,9.36,9.36,0,0,0,.76,4.53c-22.31,5.35-35.7,10.88-38.59,10.88C4.52,104.66.6,104.1.6,105.78c0,4.21,16,1.4,16,1.4,6.73,0,24.38-15.89,113.77-15.89,6.45,0,10.93,15.89,13.17,15.89s2.93-1.19,7.06-5.32c.79-.79,3.59-.84,3.59-9S137.35,83.92,137.35,83.92ZM65.87,89.23A2.47,2.47,0,0,1,65.22,91c-1.91.38-3.77.76-5.58,1.16a58.31,58.31,0,0,0,1.88-8.5c1.58-.42,3.22-.84,4.9-1.26C66.11,85.66,65.87,88.36,65.87,89.23Zm26.21-2.59c-7.87,1-15.21,2.12-22,3.38.63-2.28,1.41-5.56,2.2-9.09,2.08-.49,4.22-1,6.45-1.45.49,3.89,1.77,8.09,4.08,8.09,1.33,0,2.35-4.61,3-9.53,3.35-.64,6.83-1.26,10.46-1.83A36.56,36.56,0,0,1,92.08,86.64Z"/><path d="M47.4,117.27c-3.09,0,5.6-11.21,3.36-11.21-3.49,0-17.93,15.13-17.93,20,0,0,0,2.4,7,2.4,6.45,0,27.74-17.09,27.74-20.38S50.48,117.27,47.4,117.27Z"/><path d="M82.71,111.79c-2,0,.28-9.93-3.37-9.93s-6.44,6.24-6.44,6.24c0,1.89-1.82,5.67,0,7.49s-.56,10.49,1.82,10.49S87,121.68,87,115.46C87,115.46,84.73,111.79,82.71,111.79Z"/><path d="M99.8,105.86c0,4.41,7.14,6.93,14.29,6.93,0,0,4.69-1.25,4.69-4.69S112.5,98.38,110.12,96,99.8,101.46,99.8,105.86Z"/><path d="M141.55,110.27c-1.68,0-10.93-8.41-14.57-8.41-2.8,0,3.36,4.63,3.36,6.24S127,112.79,127,115s6.68,11,8.81,11,13.33-5.64,13.33-8.91S143.23,110.27,141.55,110.27Z"/></g></g></svg>