<svg xmlns="http://www.w3.org/2000/svg" viewBox="0 0 699.33 281.94"><defs><style>.cls-1{fill:none;stroke:#000;stroke-miterlimit:10;stroke-width:0.25px;}</style></defs><g id="Layer_2" data-name="Layer 2"><g id="Layer_1-2" data-name="Layer 1"><path class="cls-1" d="M278.52,108.85c-5.77-3.51-9.2-24.13-8-38.27-4.46,5.12-7,2.16-10.46-9.49,2.55-2.55,12.65-3.92,21.33-1.17-8.31-8.31-23.65-16-20.54-23-4.12-1.59-10.49-6.18-12.36-9.27-2.45-2.45-22.8-10.13-28.06-10.89C245.61,45,254.33,71.17,236.27,58.06c-5.15,9.76-.22,20.21-8.79,37.12,6.42-1.91,9.45-1.91,11.43-6.59,4.24,7.13-2.2,20.66-2.2,20.66,4.12,4.12,5.76,15.38,14.7,21.71-6.28,1.88-8.47,2.59-13-1.93-1.65,20.76,17.62,43.8,20.45,45.83,4.66-11.36,9.1,10.29,6,21.39,21-11.07,16.23,25,9.34,30.38,8.46,0,35.86-20.15,41.91-26.26,2.51-4.07,4.69-14.67,7.08-8.08,7.83-9.64,6.13-15.13,6.13-24.37,2.44.06,4.61-1,5.85,4.16,10.27-10.27,2.85-21,18-47-6.68,2-4-18.83-4-18.83-5.18,7.47-10.64-15.13-9.18-13,3.44,5.09,7,8.31,11.21,6.42-4.95-25-2.31-31-.28-38,3.43-9,3.9-23,15.44-20.34,0-10.82-58.66-40.89-58.66-40.89s25.6,25.72,16.14,33.12c11.75,4.83,2.73,28.2-5.92,10.86-1,26-.19,36.39-7.88,34.48,7.25,26.08,4.13,21.45,9.67,24.9-3.79,5.48-9.72,12-17.16,10.75,1.18,7.39,9.2,19.63,14,14.82,4.39,8.46-11.1,47.11-18.83,52.35,3.74-16.53-4.68-35.5-8-40.18a29.22,29.22,0,0,0-16.42.38c3.51,0,5.94-13.57,8.25-21.49C274,124.41,277.73,111.38,278.52,108.85Z"/><path class="cls-1" d="M196.65,103.52a1.38,1.38,0,0,0-.22.31C196.69,103.53,196.78,103.39,196.65,103.52Z"/><path class="cls-1" d="M244.44,182.43c-.58,1.18-19.09,4.62-21.89-5.31-4.39,2.19-6.89,12.6-28-8.53,18.79,4.82,42.3,3.53,51.9.36-17.37-8.22-20.84-25.15-14.55-29.82-6.67-.95-30.13-19-31.68-18.46,0-18.63-8.73-17.13-3.48-29-2.12,0-3.27,3.07-10.05,0-6.71-3.74-19.39-13-25-24,5.85,1.65,12.63,3.4,17.05,3.4A24.69,24.69,0,0,1,186,76.38a20.92,20.92,0,0,0,15,6.13c-2.3-3.64-4.79-8.85-4.29-11.93,7.28,4.88,10.42,8.57,16.62,11,4.85,4.84,4.91,13.53,6,16.78,9.86-25.84,1.53-25.88,3.73-38.77,2.47-15.12,5.32-7.7,5.32-7.7C225.62,35.76,215.13,26.16,210.68,24c3.12,6.74-2.9,13.37-14.55,2.82-9.39,0-11.83-3.82-26.25-15,2.45,12.26,7.75,18.11,12.3,22.32,2,1.85,7.89,6,2.73,7.35-6.48,1.7-14.59,2.61-24.92-7.71-5.71,7-21.75-7.88-30.76-12.4,12.3,9.44,8.09,13.7,10.52,16.12,6.34,6.34,10.12,6,10.1,7.34s-6.69,2.28-18.63-1.27c-.86-1.1-1.64-2.15-2.25-3.07-4.43-4.42-5.14-1.73-12.74-4.69.59.23,7.64,4,4.35,8.73-12.2-1.19-11.39-11.3-7.59-12.4a21.19,21.19,0,0,1-13.92-6.26c-3.62-3.74-5.78-2.27-18-11.78,3.48,3.6,9.13,15.84,9.82,23.46-1.73-1-6.15-5.71-10.1-7,4,4.19,5.88,23,5.77,29.73s22.53,28.3,22.53,28.3-14-21.1-10.51-33.23c3.66,2.11,7,15.34,18.55,21.68C115.39,70.93,114,66.55,114,61.82c6.73,0,12.69,11.06,17.49,12.8,0-3.51,1.36-7.29,3.21-5.38s9.65,6,13.17,4.85c-2.79,2.79,8.28,19.18-1.76,17.59,2.08,1.44-3.84,17.44,6.45,33.92,0-11.19,12.9-13,17.28-11.58-2.3,7.21,5.45,11.33-2.3,21.24,11.65,5.82,1.45,14.1,9.53,18.52,0,7.67-16.06,7.55-14.69,9.72,0,0,9.92,13.85-4.25,17.33-1.14-.58-26.87,2.31-42.34-19.73-.21,5.42-.88,14.44-8.79,14.44-11,4.45-10.72,12.63-21.87,23.78,14.68-9.5,16.47,9.86-9.39,18.66C84.07,235.25.7,281.7.7,281.7s99.23-17.22,124.5-40.76c2.76-2.58,9.47-11.86,14.55-14.39-6.35,2-13.08,3.76-15.25-1.36C123.39,213.37,140.2,222,146,222c-4.24-1.44-12.37-8.91-12.37-19.46,12.53-2.64,35,6.17,36.95,6.92-5.09-14.76,33.75,3,37.21,3a24.25,24.25,0,0,0-10.19-15.79c6.56,0,25.1,5.52,25,14.09,9.19-8.89,15.07-4.48,16.89-4.45,6.22,2.51,21.2,3.26,26.23-1.61C243.52,198.23,244.28,192.2,244.44,182.43Z"/><path class="cls-1" d="M356.12,136.6c6.26,3.62,5.74-13.33,9.56-32.77-1.56,0-6.67,3.6-7.73,9.72-4.61-21.49,5.18-37.42,3.3-47.31,6.52,0,17.94-1.81,14.65-8.13,10.21,0-4.84-20-4.79-27.08.06-8,3.13-23.19,12.27-23.19C381.17,27.19,417.75,31,417.75,26.18c8.94,10.43,18.62,9.9,22.05,8.35-.46,4.18,3.06,22.2,7.94,28.25-4.92-.68-13.08-5.49-17.15-4.1-1.8,4.3.67,22.65,11.86,45.29-3.68-1-8.25-1.92-8.25-1.92-5.76-4.13-9.67-10.1-13.49-16.53-.76-1.29-.43,4-.43,4-6.16-4.21-7.1-5.33-10.85-7.7a43.21,43.21,0,0,1-9.29-17.51c-4.55,4.56-7.37,17.79-11.17,20.67,0,2.35,3.57,7.67,6,7.67,2.61,8.78,6.48,36.42,19.77,40.7-4.73.61-8.67-2.39-16.91,8.26,2,9.23-4,18.88-6.47,19.67,1.51,1.5,7.76,2.27,7.76,2.27,4.17-.34,12.5-2.28,14-8.28,2.71.9,3.4,2.58,12.19-9,0,3.49.69,4.82,1.81,4.76,0-4.76,13.78-13,17.3-17.72,3.91,2.9,1.68,1.22,5.69,5.85-5.69-4.2-10.05,10.71-7.83,12.94-2.8,3.79-4.12,6.92-.49,9.56-1.4,2-7.75,4.28-11.05,4.28-1.41,0-2,5.67,1.24,5.67-7.54,8.55-16.91,17.73-22,19.21-1.7,12.21-.42,27.26,6.43,34.11-7.18.05-24.57-15.35-32.95-23.73,0-14.83-15.82-12.67-10.88-.33-9.58-4.68-21.9-20.74-23.4-29.33,3.5,0,6.83-14.5-1.08-18.78A17.5,17.5,0,0,0,356.12,136.6Z"/><path class="cls-1" d="M558.47,166.33c21.46,22.83-19.12,19.81-28.72,7.51-4.9,8.79-17.37-40.54-12.2-67.6-13.34-6.15-12.43-45.71-12.43-52.69-8.51-1,5.23-26.27,9.74-42.73-1.18.46-16.37,19.86-23.62,15.71-11.51,9.22-26.6,13.27-35.76,8.57,1.35,3.33,6.68,10.79-1.48,18.95-.45,13.29,6.4,28.11-6.56,50,10.51,0,11.06-3.35,19.37-17.4,1.05,1.72,2.61,3.14,1.47,6.64,4.13.5,19.53-23.44,23.62-27.53,0,9.73,4.83,32.08-6.76,34.28-6.15,23.72-8.55,29.64-16.09,32.13,5.33,0,4.59,3.41,13.95,2.55,0,8.27,4.78,19.34,11.86,25.3-3,3-15.58-2.31-18.71-10.55-1,2.91-1.52,6-3.37,7.26-1.81-3.8-14.69-12.75-21-14.76,1.32,7,5.2,17.86-1,11.68,2.88,9.39-4.13,24.21-7.64,20.7-3.73,3.74-26.28,30.75-27,41,7-7.18,20.73-16.55,29-18.27,21.3-4.45,36.82,6.64,52.7,11.7,6.48-19,56.4-2,60.55,5.39,6.8-14,32,36.48,31.61,58.88,23.92-32.35,112-12.38,109.2-13.59C620,225.87,611,201.06,592.53,183.92,584.79,176.74,575.39,170.9,558.47,166.33Z"/><path class="cls-1" d="M578.69,73.65c1.7,6.6,32.24-20.87,31.09-23.72-15,8.64-22.85,8.67-30.33,12.19-3.4-1-6.48.55-8.89,3,2.64-6,3.79-10.06,2.8-14.83-3.29,3.29-7.41,10.21-16.31,15.16,0,0-2.55-2.93-6.26-7.58.17.93-1.65,3-11.87-3,2.28,6.62,1,20.43-5.6,27,0-4.28-3.76-5.14-5.22-9.28-3.5,0-7.9,18.08-8.46,23.5-1.22-1.54-11.84-58.55-.43-65.67,1,5.28,2.19,7.57,5.38,8.94,3.07,1,14.5-5.38,9.31-8.38,15.8-9.64,24.35-1.83,38.2-.41-2,7.15,8.35,10.2,25.38-.45,4.45,4.45,19.93,1.61,43.95-7.1-.39,5.88,26.28,7.1,20.31,8-16.3,2.42-14.58,13.11-11.43,24.39C638.67,55.42,622.84,68,636,68.6,622,74,622,78.6,608.29,83.08c3.63,3.64,10.37,5.21,21.37-.2,2.64,11.53-37.08,33.12-37.08,39.55-23-4.44-46.74,6.68-61.24,41.07-6.15-31.94-.2-47.18,9.07-56.45,10.71,2.73,17.28-2.27,20.1-5.1-2.23.37-8.28-7.11-7.58-7.37C570.56,93.27,575.49,74.75,578.69,73.65Z"/></g></g></svg>