<svg xmlns="http://www.w3.org/2000/svg" viewBox="0 0 154.64 154.64"><defs><style>.cls-1{fill:none;}</style></defs><g id="Layer_2" data-name="Layer 2"><g id="Layer_6" data-name="Layer 6"><path d="M36.93,106.55c-2.33,0-4.77-2.47-5.55-3.33-.66-.61-18.13-17.07-20.89-25.45h0C8.81,72.67,10.2,67.3,13.78,65c2.85-1.82,6.43-1.16,9.56,1.77,11.66,10.88,17,25.45,17,34.38,0,1.07,0,4.31-2.3,5.2A3.07,3.07,0,0,1,36.93,106.55ZM13.18,76.88c2.53,7.7,20,24.19,20.22,24.36,1.41,1.54,3.14,2.62,3.59,2.48,0,0,.49-.39.49-2.56,0-8.34-5-22-16.07-32.31-2.19-2-4.36-2.57-6.1-1.45-2.11,1.34-3.57,5.12-2.13,9.48Z"/><path d="M53.93,101.58a5.38,5.38,0,0,1-5.33-5.32V62a9.54,9.54,0,0,1,2.86-7.25,9.3,9.3,0,0,1,6.33-2.33c5,0,10.07,3.46,10.07,9.24,0,9.11-7.7,35.69-10.56,38.55A4.71,4.71,0,0,1,53.93,101.58Zm3.86-46.36a6.47,6.47,0,0,0-4.41,1.59,6.66,6.66,0,0,0-2,5.16V96.26A2.46,2.46,0,0,0,53,98.55a2.07,2.07,0,0,0,2.3-.37C57,96.36,65,71.28,65,61.63,65,57.62,61.35,55.22,57.79,55.22Z"/><path d="M77.76,99.23c-2.93,0-5-.75-6.09-2.21a5.37,5.37,0,0,1-.6-4.91c3.76-13.57,22.68-35.64,31.12-33.64,3.39.79,4.45,4.63,3.15,11.42C102.12,86.75,82.35,99.23,77.76,99.23Zm23.16-38.07c-6.41,0-23.46,18.48-27.12,31.7h0a2.79,2.79,0,0,0,.12,2.44c.54.71,1.9,1.1,3.84,1.1,3.26,0,21.77-11.2,24.8-27,.91-4.74.53-7.77-1-8.13A2.59,2.59,0,0,0,100.92,61.16Z"/><path d="M109.72,106.55c-3.3,0-6.67-7.6-6.67-11.85,0-7.14,14.15-32.93,19.33-32.93,7.65,0,8.29,5.87,8.29,11.37C130.67,86.65,112.83,106.55,109.72,106.55ZM122.38,64.6c-3,.89-16.5,22.72-16.5,30.1,0,3.32,2.51,8.09,3.73,8.92,3.06-2.08,18.23-18.31,18.23-30.48C127.84,66.52,126.62,64.6,122.38,64.6Z"/><path d="M28.26,142.07A1.93,1.93,0,0,1,26.35,140c0-2.88,4-9.56,4.83-10.87,4.71-7.65,6.77-8.22,7.57-8.26,3.64-.8,9.89-1.86,11.86-.27a2.11,2.11,0,0,1,.82,1.68C51.43,125.88,31.31,142.07,28.26,142.07ZM39,123.64c-2,.85-8.31,11.07-9.61,15.1C33.74,136.32,46,125.9,48.3,122.61c-1.54-.22-5.39.19-9.08,1Z"/><path d="M78.29,138.37h-.18c-.58-.05-1.77-.15-4.87-5.12a44.53,44.53,0,0,1-4-8.07c-.76-2.19-.14-3.23.5-4,.07-.09.17-.21.19-.25h0a1.83,1.83,0,0,1,1.23-1.69c1.39-.45,2.78.44,7.76,6.32,2.47,2.92,3,8.74,1.71,11.28A2.54,2.54,0,0,1,78.29,138.37Zm-6.06-15.88a4.62,4.62,0,0,1-.31.42c-.26.32-.36.45,0,1.34,1.36,3.92,4.8,9.5,6.32,11,.52-1.43.34-5.76-1.48-7.91A52.34,52.34,0,0,0,72.23,122.49Zm.48-1.36Z"/><path d="M103.92,136.3A15,15,0,0,1,98,134.61c-3.86-1.78-5.92-8.59-5.92-12.82A5.18,5.18,0,0,1,94.62,117c.82-.4,2.54-.81,4.77.93,3.23,2.53,7.64,10.17,8,11.68.27,1,1.09,4.17-.89,5.83A4,4,0,0,1,103.92,136.3Zm-7.74-16.81a.71.71,0,0,0-.32.07,2.6,2.6,0,0,0-.94,2.23c0,4.26,2.08,9.24,4.27,10.25,4.4,2,5.43,1.32,5.53,1.24.28-.24.44-1.15,0-2.94-.3-1-4.38-8.08-7-10.17A2.79,2.79,0,0,0,96.18,119.49Z"/><path d="M130.35,137.13c-3.62,0-19.68-4.6-22.21-11.88-.88-2.52-1.66-5.59.07-7,1.54-1.28,3.74-.07,4,.07l.29.22c1.44,1.44,6.58,1.18,11.11.94,5.91-.3,12-.61,15.28,1.9l.14.12c1.89,1.89,2.22,6,.76,9.47A9.75,9.75,0,0,1,130.35,137.13ZM110,120.48c-.06.34-.09,1.37.77,3.84,1.87,5.38,15.72,10,19.54,10a7,7,0,0,0,6.82-4.43c1.1-2.67.69-5.43-.1-6.33-2.48-1.81-8.24-1.51-13.33-1.25-5.72.3-10.68.55-13.08-1.6A2.67,2.67,0,0,0,110,120.48Z"/><path d="M27.77,59.87c-10.17,0-14.43-5.13-16.21-9.44-3.77-9.09.22-23,6.15-29h0C25.56,13.61,35.85,6.19,38.89,6.19c3.66,0,3.66,5.11,3.66,7.85,0,1.6-1.9,4.56-6.55,11.45-2.43,3.58-6.11,9-6.25,10.22s0,2.89,10.72,2.89c1.38,0,5.62-1.1,10.54-2.38,11.67-3,29.3-7.61,44.29-7.61,22.48,0,30.05,7.83,30.05,11.4s-3.87,6.3-7.19,6.3a24,24,0,0,1-4.69-.94,98.29,98.29,0,0,0-25.15-3.5c-25.48,0-35.13,6.38-42.89,11.51C40.15,56.86,35.6,59.87,27.77,59.87ZM38.89,9c-1.5.1-10.56,5.81-19.17,14.43h0c-5.21,5.21-8.85,17.92-5.55,25.9,2.12,5.1,6.69,7.69,13.6,7.69s11-2.66,16.1-6C51.94,45.68,62,39,88.32,39a100.92,100.92,0,0,1,25.84,3.59,27.1,27.1,0,0,0,4,.85c1.92,0,4.35-1.63,4.35-3.47,0-1.12-5.07-8.57-27.21-8.57-14.63,0-32,4.53-43.58,7.52-5.73,1.49-9.51,2.47-11.25,2.47-8.79,0-13.55-.92-13.55-5.76,0-1.65,2-4.85,6.73-11.77,2.36-3.48,5.91-8.74,6.07-9.9C39.72,9.51,39.14,9,38.89,9Z"/><path d="M29.42,119.06c0,2.63-6,1-8.6,1s-7-4.32-7-7,4.32-2.6,7-2.6S29.42,116.42,29.42,119.06Z"/><path d="M62.07,111.05c0,2.25-1.6,8-3.84,8s-6-2.94-6-5.19,1.82-5.18,4.07-5.18S62.07,108.81,62.07,111.05Z"/><path d="M90.86,109.8a4.67,4.67,0,0,1-4.67,4.66c-2.57,0-6.32-1.42-6.32-4S82.79,107,85.36,107,90.86,107.22,90.86,109.8Z"/><path d="M117.78,108.21c0,1.83-1,4.54-2.83,4.54s-4.33-.46-4.33-2.29,2.5-4.32,4.33-4.32S117.78,106.38,117.78,108.21Z"/><path d="M150.64,108.69c0,2.94-3.35,4.37-6.29,4.37s-5.66-4-5.66-6.92,2.72-3.74,5.66-3.74S150.64,105.75,150.64,108.69Z"/></g></g></svg>