<svg xmlns="http://www.w3.org/2000/svg" viewBox="0 0 152.39 152.39"><defs><style>.cls-1{fill:none;}</style></defs><g id="Layer_2" data-name="Layer 2"><g id="Layer_1-2" data-name="Layer 1"><path d="M118.42,79.37c0,7-9.5,10.35-5.22,10.35,5.65,0,18,1.19,18,7.3,0,4.69-11.71,2.37-11.71,2.37s4.18,8.9,4.18,11.91c0,3.44,6.42,1.85,6.42,9.57,0,3.66-1.69,3.61-6,3.61-5.22,0-16-13.53-19.87-13.53-10,0-4.87,12.14-9.74,12.14s-6-9.81-11.22-9.81c-2.89,0-8.87,5.4-8.92,11.39,0,1.54-2.57,1.29-4.31,1.29-5,0-8.92-8.4-8.92-10.14s-13.42,14.5-30,14.5c-1.31,0-3-2.83-3-4.28,0-5.38,15-9.58,15-13.7,0-4.4-7.42-3.18-7.42-7.41,0-5.74,9.65-10.05,9.65-13.56,0-1.66-10.65-2.3-10.65-20.81,0-3.08,2.35-3,4.51-3,6.43,0,12.65,9.38,16.77,9.38,9.61,0-1.31-17,5.21-17,9.13,0,21.59.36,21.9,10.08.46,14.63,6.66-.12,13.47-.12,4.33,0,6.35.53,6.35,5C113.09,74.8,118.42,76.64,118.42,79.37Z"/><path d="M30.88,50.26C32,42.23,42,36.22,42,29.75c0-12.51,25.55-6.62,25.55-3.92C67.55,34.52,47.21,43,56.25,43c4.92,0,16.29-5.87,25-7.3,10.4-1.69,18,1,19.9,1,8.19,0,22.06,1.52,22.06,12,0,14.47-15.94,8.16-19.62,8.16-5.22,0-12.75-9.73-21.21-9.73-11.47,0-20.86,5.21-29.89,5.21-4.18,0-1.83-4.28-6.29-4.28-3.16,0-4.71,8.8-10.7,8.8C29.92,56.84,30.88,53.91,30.88,50.26Z"/></g></g></svg>