<svg xmlns="http://www.w3.org/2000/svg" viewBox="0 0 154.64 154.64"><defs><style>.cls-1{fill:none;}</style></defs><g id="Layer_2" data-name="Layer 2"><g id="Layer_6" data-name="Layer 6"><path d="M118.53,30.53C108.42,29.47,99.35,24.94,98,18.42a.19.19,0,0,0-.38,0c-.93,4.52-5.3,8.37-11.43,10.49a5.84,5.84,0,0,1-1.9.33,5.93,5.93,0,0,1-1.9-.33c-6.12-2.12-10.49-6-11.42-10.49a.19.19,0,0,0-.38,0c-1.35,6.52-10.41,11-20.52,12.11a.2.2,0,0,0,0,.39c10.36,1.43,19.17,5.51,20.52,12A.19.19,0,0,0,71,43c.93-4.53,5.3-8.38,11.42-10.5a5.66,5.66,0,0,1,1.9-.32,5.58,5.58,0,0,1,1.9.32c6.13,2.12,10.5,6,11.43,10.5A.19.19,0,0,0,98,43c1.35-6.54,10.16-10.62,20.52-12A.2.2,0,0,0,118.53,30.53Z"/><path d="M45.42,125.79c.84,5.49,4.33,9.79,8.73,10.72a.19.19,0,0,1,0,.37c-4.4.92-7.89,5.23-8.73,10.72a.2.2,0,0,1-.39,0c-.83-5.49-4.32-9.79-8.72-10.72a.19.19,0,0,1,0-.37c4.4-.93,7.89-5.23,8.72-10.72A.2.2,0,0,1,45.42,125.79Z"/><path d="M66.82,125.79c.84,5.49,4.33,9.79,8.73,10.72a.19.19,0,0,1,0,.37c-4.4.92-7.89,5.23-8.73,10.72a.19.19,0,0,1-.38,0c-.84-5.49-4.33-9.8-8.73-10.72a.19.19,0,0,1,0-.37c4.4-.93,7.89-5.23,8.73-10.72A.19.19,0,0,1,66.82,125.79Z"/><path d="M87.35,125.79c.84,5.49,4.33,9.79,8.73,10.72a.19.19,0,0,1,0,.37c-4.4.92-7.89,5.23-8.73,10.72a.19.19,0,0,1-.38,0c-.84-5.49-4.33-9.8-8.73-10.72a.19.19,0,0,1,0-.37c4.4-.93,7.89-5.23,8.73-10.72A.19.19,0,0,1,87.35,125.79Z"/><path d="M108.75,125.79c.84,5.49,4.33,9.79,8.73,10.72a.19.19,0,0,1,0,.37c-4.4.93-7.89,5.23-8.73,10.72a.19.19,0,0,1-.38,0c-.84-5.49-4.33-9.8-8.73-10.72a.19.19,0,0,1,0-.37c4.4-.93,7.89-5.23,8.73-10.72A.19.19,0,0,1,108.75,125.79Z"/><path d="M54.48,3c-4.82,7.08-12,11-17.84,9.7-.24-.05-.52.49-.34.66C39.09,16,42.38,21,40.24,25.09,38.35,28.7,32.32,29,28.66,28.25c-.24-.05-.52.49-.34.66,4.36,4.12,5.23,12.21,2.13,20.2-.14.37.12.51.35.18,4.82-7.09,12-11,17.83-9.71.25.05.53-.49.35-.66-2.8-2.64-6.1-7.65-3.95-11.75,2-3.89,7.93-4,11.58-3.17.25.05.53-.49.35-.66-4.36-4.12-5.23-12.2-2.14-20.19C55,2.77,54.71,2.63,54.48,3Z"/><path d="M81.7,102.94c4.31-2.4,7.23-5.67,8-9.33a.19.19,0,0,1,.38,0c.74,3.66,3.66,6.92,8,9.32a9.88,9.88,0,0,0,9.63,0c4.31-2.41,7.23-5.67,8-9.34a.19.19,0,0,1,.38,0c1.43,7.06,10.24,12.34,22.71,13.36a.2.2,0,0,1,0,.39c-12.4,1.27-21.28,6.24-22.71,13.3a.19.19,0,0,1-.38,0c-.74-3.67-3.66-6.94-8-9.34a9.91,9.91,0,0,0-9.63,0c-4.3,2.41-7.22,5.67-8,9.33a.19.19,0,0,1-.38,0c-.75-3.66-3.67-6.93-8-9.33h0a9.84,9.84,0,0,0-9.61,0c-4.31,2.4-7.23,5.67-8,9.33a.19.19,0,0,1-.38,0c-.74-3.66-3.66-6.92-8-9.33a9.89,9.89,0,0,0-9.62,0c-4.32,2.4-7.24,5.67-8,9.34a.19.19,0,0,1-.38,0c-1.43-7.06-10.31-12-22.71-13.3a.2.2,0,0,1,0-.39c12.46-1,21.27-6.3,22.7-13.36a.19.19,0,0,1,.38,0c.74,3.67,3.66,6.93,8,9.34a9.86,9.86,0,0,0,9.62,0c4.3-2.4,7.22-5.66,8-9.32a.19.19,0,0,1,.38,0c.75,3.66,3.67,6.93,8,9.33a9.89,9.89,0,0,0,9.61,0"/><path d="M105.79,41.85c0-.54.34-.54.38,0,.86,13.72,4.55,24.34,9.15,25.95a.22.22,0,0,1,0,.41c-4.6,1.61-8.29,12.24-9.15,26,0,.54-.34.54-.38,0-.86-13.71-4.55-24.34-9.15-25.95a.22.22,0,0,1,0-.41C101.24,66.19,104.93,55.57,105.79,41.85Z"/><path d="M86.4,41.85c0-.54.34-.54.38,0,.86,13.72,4.55,24.34,9.15,25.95a.22.22,0,0,1,0,.41c-4.6,1.61-8.29,12.24-9.15,26,0,.54-.35.54-.38,0-.86-13.71-4.56-24.34-9.15-25.95a.22.22,0,0,1,0-.41C81.84,66.19,85.54,55.57,86.4,41.85Z"/><path d="M67,41.85c0-.54.34-.54.38,0,.85,13.72,4.55,24.34,9.15,25.95a.22.22,0,0,1,0,.41c-4.6,1.61-8.3,12.24-9.15,26,0,.54-.35.54-.38,0-.86-13.71-4.56-24.34-9.15-25.95a.22.22,0,0,1,0-.41C62.45,66.19,66.15,55.57,67,41.85Z"/><path d="M47.62,41.85c0-.54.34-.54.38,0,.85,13.72,4.55,24.34,9.15,25.95a.22.22,0,0,1,0,.41c-4.6,1.61-8.3,12.24-9.15,26,0,.54-.35.54-.38,0-.86-13.71-4.56-24.34-9.15-25.95a.22.22,0,0,1,0-.41C43.06,66.19,46.76,55.57,47.62,41.85Z"/></g></g></svg>