<svg xmlns="http://www.w3.org/2000/svg" viewBox="0 0 154.64 154.64"><defs><style>.cls-1{fill:none;}</style></defs><g id="Layer_2" data-name="Layer 2"><g id="Layer_6" data-name="Layer 6"><path d="M46.73,114.33c.2-1.13.32-3.29.32-3.44,0-3.19-11.73-10.18-12.91-10.18s-1.23-.11-1.23,1.67c0,0-2.16,11.82-6.59,11.82s-10.73,5.09-10.73,12.51c0,4.19,6.05,7.85,10.34,7.85-4.42,0,.73-10.26,3.38-9.55s6.81,8.59,8.5,8.59c2.13,0,5.5-1.75,5.5-2.21,0-2.08.65-4.26,1.71-8.75l.32,0c1.77,0,4.9-4.66,4.9-6.92C50.24,114.52,48.55,114.35,46.73,114.33Z"/><path d="M153.55,114.81c0-1.2-1.13,6.43-7.82,6.43-1.91,0-8.32-1.73-12.25-3.29-3-3.4-6.41-7-6.41-7.83s-2.21-5.4-2.8-5.4c-2.71,0-15-4.55-15-1.51s7.57,29.9,18.26,29.9c1.21,0,5.95-3.42,8.7-6.07,4.69,2.84,10.45,4.87,14.07,2.58S153.55,119.74,153.55,114.81Z"/><path d="M104.43,130.11c-1.1,0-4.43-1.72-4.43-2.78h0c-.7-6.63-3.45-22.65-5.64-22.65-2.52,0-13.4-4.42-13.4-.31,0,2.25,1.58,11.86,2.24,17.44a2.92,2.92,0,0,1-1.15.73c-1.1.18,1.49,7.78,2.84,7.56.38-.06,1-.09,1.65-.12,3.32,2.11,8.53,2.71,11.46,1.81,1.82,1.72,4,3,6,2.72,2.29-.37,3.15-3.41,3.15-6.17C106.44,128.34,106.49,130.11,104.43,130.11Z"/><path d="M70.06,105.53c-2.53,0-14.61-5.46-14.61-2.91,0,2.84,1.17,19.47,1.17,22.81,0,5.08,18.05,8.2,18.05,3.71C74.67,125.61,72.58,105.53,70.06,105.53Z"/><path d="M11,59.44c9.79,0,25-5,24.9-13,0-2.08,0-4.24-.07-6.36h1.32v28.5H20a1.82,1.82,0,0,0-1.82,1.82v3A1.83,1.83,0,0,0,20,75.2H37.14V87.34H19.85a1.72,1.72,0,0,0-1.72,1.72v3.19A1.72,1.72,0,0,0,19.85,94h108a1.72,1.72,0,0,0,1.72-1.73V89.06a1.72,1.72,0,0,0-1.72-1.72H112.6V75.2h15.11a1.83,1.83,0,0,0,1.82-1.83v-3a1.82,1.82,0,0,0-1.82-1.82H112.6V40.06h13.33a1.94,1.94,0,0,0,1.93-1.94V35.35a1.94,1.94,0,0,0-1.93-1.94H35.78c0-1.43,0-2.79,0-4,0-4.64,5.06-.42,5.06-5.06,0-1.06.61-3.65-2.76-3.65H12.77c-2.42,0-1.69,2.82-1.69,4.1,0,3.35,10.78-1.71,10.78,6.72,0,3.93-5.18,7.37-7.43,7.37-1,0-.59,1.2-.59,1.88,0,2.9,4.14,1.45,4.14,2.9C18,47.45,17,58.3,11,59.44Zm43.6-19.38h1.89v28.5H54.59Zm19.33,28.5V40.06h1.9v28.5Zm1.9,6.64V87.34h-1.9V75.2Zm-21.23,0h1.89V87.34H54.59ZM95.16,87.34h-1.9V75.2h1.9Zm0-18.78h-1.9V40.06h1.9Z"/></g></g></svg>