<svg xmlns="http://www.w3.org/2000/svg" viewBox="0 0 152.39 152.39"><defs><style>.cls-1{fill:none;}</style></defs><g id="Layer_2" data-name="Layer 2"><g id="Layer_1-2" data-name="Layer 1"><rect x="26.7" y="68.49" width="94.73" height="5.65" rx="1.55"/><rect x="33.33" y="38.61" width="86.67" height="5.65" rx="1.64"/><rect x="26.7" y="84.46" width="94.73" height="5.65" rx="1.47"/><rect x="42.87" y="39.96" width="14.83" height="47.51" rx="0.65"/><rect x="59.31" y="39.96" width="14.83" height="47.51" rx="0.65"/><rect x="75.75" y="39.96" width="14.83" height="47.51" rx="0.65"/><rect x="92.2" y="39.96" width="14.83" height="47.51" rx="0.65"/><path d="M51,107.41c.17-1,.27-2.8.27-2.93,0-2.71-10-8.65-11-8.65s-1-.09-1,1.42c0,0-1.84,10-5.61,10s-9.12,4.32-9.12,10.63c0,3.57,5.14,6.68,8.79,6.68-3.76,0,.62-8.72,2.87-8.12s5.8,7.31,7.23,7.31c1.82,0,4.68-1.49,4.68-1.89,0-1.76.55-3.61,1.45-7.44l.28,0c1.5,0,4.16-4,4.16-5.88C54,107.57,52.57,107.43,51,107.41Z"/><path d="M91.38,117.52c.33,2,4.84,7.62,8.29,7,2-.32,2.68-2.9,2.68-5.25-.56,0-.52,1.51-2.27,1.51-.94,0-3.76-1.47-3.76-2.37,0-1.27-3.78-6.65-3.92-7.51A53.78,53.78,0,0,0,91.38,117.52Z"/><path d="M93.6,119c.34,2-8.11,1.46-10.13,1.79-1.15.19-3.35-6.27-2.42-6.43.74-.12,2.77-2.25,2.63-3.11-.05-.3.71-1.41.42-1.85,1.3,0,.81,2.14,2.16,1.92C86,111.75,93.51,118.46,93.6,119Z"/><path d="M58.43,97.45c0,2.42,1,16.55,1,19.39,0,4.33,15.35,7,15.35,3.16,0-3-1.77-20.07-3.92-20.07S58.43,95.29,58.43,97.45Z"/><path d="M80.12,98.94c0,2.41,2.15,14.86,2.15,17.7,0,6.39,14.19,7.62,14.19,3.8,0-3-2.79-21.24-4.94-21.24S80.12,95.45,80.12,98.94Z"/><path d="M104.17,98c0,2.59,6.43,25.42,15.53,25.42,1.47,0,9.1-6,9.1-7.42,0-1.88-9.47-10.78-9.47-12.12,0-.82-1.88-4.59-2.38-4.59C114.64,99.24,104.17,95.37,104.17,98Z"/><path d="M20.7,31.27c0,2.84,9.17-1.46,9.17,5.71,0,3.34-4.4,6.27-6.32,6.27-.81,0-.5,1-.5,1.59,0,2.47,3.52,1.24,3.52,2.47,0,3.23-.85,12.45-5.94,13.42,8.32,0,21.27-4.24,21.17-11.06-.07-5-.1-10.54-.1-14.48s4.3-.36,4.3-4.31c0-.9.52-3.1-2.35-3.1H22.14C20.09,27.78,20.7,30.18,20.7,31.27Z"/></g></g></svg>